<?xml version="1.0" encoding="utf-8"?>
<svg width="16px" height="16px" viewBox="0 0 16 16" version="1.1" xmlns:xlink="http://www.w3.org/1999/xlink" xmlns="http://www.w3.org/2000/svg">
  <path d="M12 0C14.2094 0 16 1.79056 16 4L16 12C16 14.2094 14.2094 16 12 16L4 16C1.79056 16 0 14.2094 0 12L0 4C0 1.79056 1.79056 0 4 0L12 0Z" id="Rectangle" fill="#FFA000" stroke="none" />
  <path d="M13.2501 5.89711L7.70584 14.2942L3.20584 6.5L13.2501 5.89711Z" id="Triangle" fill="#53FEE4" fill-rule="evenodd" stroke="none" />
  <path d="M5 5C5 3.34314 6.34314 2 8 2C9.65686 2 11 3.34314 11 5C11 6.65686 9.65686 8 8 8C6.34314 8 5 6.65686 5 5Z" id="Oval" fill="#536DFE" fill-rule="evenodd" stroke="none" />
</svg>